<?xml version="1.0" encoding="utf-8"?>
<!-- Generator: Adobe Illustrator 16.0.0, SVG Export Plug-In . SVG Version: 6.00 Build 0)  -->
<!DOCTYPE svg PUBLIC "-//W3C//DTD SVG 1.1//EN" "http://www.w3.org/Graphics/SVG/1.1/DTD/svg11.dtd" [
	<!ENTITY ns_flows "http://ns.adobe.com/Flows/1.0/">
	<!ENTITY ns_extend "http://ns.adobe.com/Extensibility/1.0/">
	<!ENTITY ns_ai "http://ns.adobe.com/AdobeIllustrator/10.0/">
	<!ENTITY ns_graphs "http://ns.adobe.com/Graphs/1.0/">
]>
<svg version="1.1" id="Layer_1" xmlns:x="&ns_extend;" xmlns:i="&ns_ai;" xmlns:graph="&ns_graphs;"
	 xmlns="http://www.w3.org/2000/svg" xmlns:xlink="http://www.w3.org/1999/xlink" xmlns:a="http://ns.adobe.com/AdobeSVGViewerExtensions/3.0/"
	 x="0px" y="0px" width="100px" height="14.5px" viewBox="125.6 -81.8 100 14.5" enable-background="new 125.6 -81.8 100 14.5"
	 xml:space="preserve">
<g>
	<path fill="#2BACE2" d="M130.6-78.9c0,0.2-0.1,0.3-0.3,0.3c-0.1,0-0.2,0-0.4,0c-0.2,0-0.3,0-0.4,0c-0.4,0-0.7,0.1-0.8,0.2
		c-0.1,0.1-0.2,0.4-0.2,0.8c0,0.2,0,0.5,0,0.9c0,0.4,0,0.7,0,0.9c0,0.1,0,0.3,0,0.6c0,0.3,0,0.5,0,0.6c0,0.1-0.1,0.2-0.2,0.2
		c-0.2,0-0.6,0-1.1,0c-0.5,0-0.8,0-1.1,0c-0.2,0-0.2-0.1-0.2-0.2c0-0.4,0-1,0-1.7c0-0.8,0-1.4,0-1.7c0-1.1-0.1-2.1-0.3-2.8
		c0,0,0-0.1,0-0.1c0-0.1,0-0.1,0.1-0.1c0.3,0,0.7-0.1,1.2-0.2c0.8-0.1,1.2-0.2,1.2-0.2c0.1,0,0.1,0.2,0.2,0.5c0,0.3,0.1,0.5,0.1,0.5
		c-0.1,0,0.1-0.1,0.6-0.4c0.5-0.3,0.9-0.4,1.3-0.4c0.3,0,0.4,0.1,0.4,0.2c0,0.1,0,0.3,0,0.6c0,0.3,0,0.5-0.1,0.6c0,0.1,0,0.3,0,0.6
		C130.6-79.2,130.6-79,130.6-78.9L130.6-78.9z"/>
	<path fill="#2BACE2" d="M136.8-78.1c0,0.4-0.1,0.7-0.4,0.7c0,0-0.5,0.1-1.3,0.1c-0.5,0.1-1.2,0.1-2.2,0.2c0.1,0.3,0.2,0.5,0.5,0.6
		c0.2,0.1,0.5,0.2,0.8,0.2c0.4,0,0.7-0.1,1.1-0.3c0.2-0.1,0.3-0.2,0.5-0.3c0.1,0,0.2,0.3,0.4,0.6c0.2,0.4,0.3,0.6,0.3,0.7
		c0,0,0,0.1-0.1,0.1c-0.5,0.5-1.3,0.8-2.4,0.8c-1,0-1.8-0.3-2.4-0.9c-0.6-0.6-0.9-1.4-0.9-2.4c0-1,0.3-1.7,0.8-2.4
		c0.6-0.6,1.3-1,2.3-1c0.8,0,1.5,0.3,2,0.9C136.5-79.6,136.8-78.9,136.8-78.1L136.8-78.1z M134.6-78.5c0-0.3-0.1-0.5-0.3-0.7
		c-0.2-0.2-0.4-0.3-0.7-0.3c-0.3,0-0.5,0.1-0.7,0.3c-0.2,0.2-0.2,0.4-0.2,0.7c0,0.1,0.1,0.2,0.2,0.2c0.3,0,0.8,0,1.4-0.1
		C134.5-78.4,134.6-78.4,134.6-78.5L134.6-78.5z"/>
	<path fill="#2BACE2" d="M139.5-77.5c0,0.9,0,1.6,0,2.1c0,0.1,0,0.2,0,0.4c0,0.2,0,0.3,0,0.4c0,0.1,0,0.1-0.1,0.1
		c-0.2,0-0.5,0-0.9,0c-0.4,0-0.7,0-0.8,0c-0.1,0-0.1-0.1-0.1-0.1c0,0,0-0.1,0-0.2c0-0.3,0-0.7,0-1.3c0-0.6,0-1,0-1.3
		c0-1.4,0-2,0-1.9c0-0.7-0.1-1.4-0.1-1.9c0,0,0-0.1,0-0.1c0-0.1,0-0.1,0.1-0.1h2c0.1,0,0.1,0,0.1,0.1l0,0.1
		C139.6-79.8,139.5-78.6,139.5-77.5L139.5-77.5z"/>
	<path fill="#2BACE2" d="M143.1-80.8c0,0.6-0.4,0.9-1.1,0.9c-0.3,0-0.6-0.1-0.8-0.2c-0.2-0.2-0.3-0.4-0.3-0.7c0-0.3,0.1-0.5,0.3-0.7
		c0.2-0.2,0.5-0.2,0.7-0.2c0.3,0,0.5,0.1,0.7,0.2C143-81.3,143.1-81.1,143.1-80.8L143.1-80.8z M142.9-76.9c0,0.3,0,0.6,0,1.1
		c0,0.5,0,0.9,0,1.1c0,0.1,0,0.1-0.1,0.1c-0.1,0-0.4,0-0.8,0c-0.4,0-0.7,0-0.8,0c-0.1,0-0.1,0-0.1-0.1c0,0,0-0.1,0-0.2
		c0-0.2,0-0.6,0-1.1c0-0.5,0-0.9,0-1.1c0-1,0-1.8-0.1-2.4c0-0.1,0-0.1,0-0.1c0-0.1,0.1-0.1,0.1-0.1c0.1,0,0.3,0,0.5,0
		c0.2,0,0.4,0,0.5,0c0.1,0,0.3,0,0.5,0c0.2,0,0.4,0,0.5,0c0.1,0,0.1,0,0.1,0.1c0,0,0,0,0,0.1C143-78.6,142.9-77.8,142.9-76.9
		L142.9-76.9z"/>
	<path fill="#2BACE2" d="M149.7-77.9c0,0.3,0,0.8,0.1,1.5c0,0.6,0.1,1.1,0.1,1.5c0,0.2-0.1,0.3-0.2,0.3c-0.5,0-1,0.1-1.7,0.1
		c-0.1,0-0.1-0.1-0.2-0.4c0-0.2-0.1-0.4-0.1-0.4c0,0-0.1,0.1-0.1,0.1c-0.4,0.5-0.9,0.7-1.4,0.7c-0.8,0-1.4-0.3-1.9-1
		c-0.5-0.6-0.7-1.3-0.7-2.2c0-1,0.2-1.8,0.7-2.4c0.5-0.6,1.2-0.9,2.1-0.9c0.6,0,1.1,0.2,1.5,0.7c0,0,0,0,0,0c0,0,0.1-0.1,0.1-0.3
		c0-0.2,0.1-0.3,0.2-0.3c0.1,0,0.4,0,0.8,0.1c0.4,0.1,0.7,0.2,0.8,0.2c0.1,0,0.1,0.1,0.1,0.1c0,0,0,0.1,0,0.1
		C149.8-79.5,149.7-78.7,149.7-77.9L149.7-77.9z M147.8-77.8c0-0.4-0.1-0.7-0.3-0.9c-0.2-0.2-0.5-0.4-0.8-0.4
		c-0.3,0-0.6,0.1-0.8,0.4c-0.2,0.2-0.3,0.5-0.3,0.9c0,0.3,0.1,0.6,0.3,0.9c0.2,0.2,0.5,0.4,0.8,0.4c0.3,0,0.6-0.1,0.8-0.4
		C147.7-77.2,147.8-77.5,147.8-77.8L147.8-77.8z"/>
	<path fill="#2BACE2" d="M156.1-76.9c0,0.7-0.2,1.3-0.6,1.7c-0.4,0.5-1,0.7-1.7,0.7c-0.5,0-0.9-0.1-1.2-0.4c0,0,0,0-0.1,0
		c0,0-0.1,0.1-0.1,0.2c0,0.1-0.1,0.2-0.1,0.2c-0.1,0-0.5,0-1.4,0c-0.2,0-0.3,0-0.3-0.1c0,0,0,0,0-0.1c0.1-0.5,0.1-1.5,0.1-3
		c0-1.4,0-2.6-0.1-3.7l0-0.1c0-0.1,0.1-0.1,0.2-0.1c0.1,0,0.4,0,0.9-0.1c0.4,0,0.6,0,0.9,0c0.1,0,0.1,0.1,0.1,0.2c0,0.1,0,0.3,0,0.5
		c0,0.3,0,0.4,0,0.5c0,0.3,0,0.8,0,1.3c0,0.1,0,0.2,0.1,0.2c0,0,0.1,0,0.1,0c0.3-0.3,0.7-0.5,1.2-0.5c0.7,0,1.3,0.2,1.7,0.7
		C155.9-78.3,156.1-77.7,156.1-76.9L156.1-76.9z M154.3-77c0-0.3-0.1-0.5-0.3-0.7c-0.2-0.2-0.4-0.3-0.7-0.3c-0.3,0-0.5,0.1-0.7,0.3
		c-0.2,0.2-0.2,0.4-0.2,0.7c0,0.3,0.1,0.5,0.2,0.7c0.2,0.2,0.4,0.3,0.7,0.3c0.3,0,0.5-0.1,0.7-0.3C154.2-76.5,154.3-76.7,154.3-77
		L154.3-77z"/>
	<path fill="#2BACE2" d="M158.9-77.5c0,0.9,0,1.6,0,2.1c0,0.1,0,0.2,0,0.4c0,0.2,0,0.3,0,0.4c0,0.1,0,0.1-0.1,0.1
		c-0.2,0-0.5,0-0.9,0c-0.4,0-0.7,0-0.8,0c-0.1,0-0.1-0.1-0.1-0.1c0,0,0-0.1,0-0.2c0-0.3,0-0.7,0-1.3s0-1,0-1.3c0-1.4,0-2,0-1.9
		c0-0.7-0.1-1.4-0.1-1.9c0,0,0-0.1,0-0.1c0-0.1,0-0.1,0.1-0.1h2c0.1,0,0.1,0,0.1,0.1l0,0.1C158.9-79.8,158.9-78.6,158.9-77.5
		L158.9-77.5z"/>
	<path fill="#2BACE2" d="M165.3-78.1c0,0.4-0.1,0.7-0.4,0.7c0,0-0.5,0.1-1.3,0.1c-0.5,0.1-1.2,0.1-2.2,0.2c0.1,0.3,0.2,0.5,0.5,0.6
		c0.2,0.1,0.5,0.2,0.8,0.2c0.4,0,0.7-0.1,1.1-0.3c0.2-0.1,0.3-0.2,0.5-0.3c0.1,0,0.2,0.3,0.4,0.6s0.3,0.6,0.3,0.7c0,0,0,0.1-0.1,0.1
		c-0.5,0.5-1.3,0.8-2.4,0.8c-1,0-1.8-0.3-2.4-0.9c-0.6-0.6-0.9-1.4-0.9-2.4c0-1,0.3-1.7,0.8-2.4c0.6-0.6,1.3-1,2.3-1
		c0.8,0,1.5,0.3,2,0.9C165-79.6,165.3-78.9,165.3-78.1L165.3-78.1z M163.1-78.5c0-0.3-0.1-0.5-0.3-0.7c-0.2-0.2-0.4-0.3-0.7-0.3
		c-0.3,0-0.5,0.1-0.7,0.3c-0.2,0.2-0.2,0.4-0.2,0.7c0,0.1,0.1,0.2,0.2,0.2c0.3,0,0.8,0,1.4-0.1C163.1-78.4,163.1-78.4,163.1-78.5
		L163.1-78.5z"/>
	<path fill="#2BACE2" d="M176.4-79c0,0.8-0.2,1.5-0.7,2c-0.5,0.6-1.1,0.8-1.9,0.8c-0.3,0-0.6-0.1-0.9-0.2c-0.3-0.1-0.5-0.2-0.4-0.2
		c0,0-0.1,0.1-0.1,0.2c0,0.2,0,0.5,0,0.9c0,0.4,0,0.7,0,0.9c0,0.1-0.1,0.2-0.2,0.2l-1.1,0c-0.3,0-0.4,0-0.5,0
		c-0.1,0-0.2-0.1-0.2-0.2l0-4.4c0-0.9-0.1-1.6-0.2-2.2c0,0,0-0.1,0-0.1c0-0.1,0-0.1,0.1-0.1c0.1-0.1,0.4-0.1,0.8-0.2
		c0.4-0.1,0.7-0.1,0.8-0.1c0.1,0,0.2,0.1,0.2,0.3c0,0.2,0,0.3,0.1,0.3c0,0,0.1-0.1,0.5-0.3c0.4-0.2,0.7-0.3,1-0.3
		c0.8,0,1.4,0.3,1.9,0.8C176.2-80.5,176.4-79.8,176.4-79L176.4-79z M174.4-79c0-0.3-0.1-0.6-0.3-0.8c-0.2-0.2-0.4-0.4-0.7-0.4
		c-0.3,0-0.5,0.1-0.7,0.4c-0.2,0.2-0.2,0.5-0.2,0.8c0,0.3,0.1,0.6,0.2,0.8c0.2,0.2,0.4,0.3,0.7,0.3C174.1-77.9,174.4-78.2,174.4-79
		L174.4-79z"/>
	<path fill="#2BACE2" d="M184.6-81.5c0,0.4,0,0.9-0.1,1.7c0,0.8,0,1.3,0,1.7c0,0.4,0,0.9,0,1.6c0,0.7,0,1.3,0,1.6
		c0,0.1-0.1,0.2-0.2,0.3c-0.2,0.1-0.6,0.1-1.2,0.1c-0.5,0-0.9,0-1.1,0c-0.1,0-0.2-0.1-0.2-0.2c0-0.2,0-0.3,0-0.5
		c0-0.2-0.1-0.4-0.1-0.4c0.1,0-0.2,0.2-0.7,0.5c-0.6,0.3-1.1,0.5-1.5,0.5c-1.3,0-2.1-0.6-2.3-1.8c-0.1-0.6-0.2-1.4-0.2-2.4
		c0-1.2,0.1-2.1,0.3-2.7c0.1-0.2,0.2-0.3,0.3-0.3c0.2,0,0.6,0,1,0c0.5,0,0.8,0,1,0c0.2,0,0.2,0.1,0.2,0.2c0,0,0,0.1,0,0.2
		c-0.1,0.7-0.2,1.4-0.2,2.1c0,0.9,0,1.5,0.1,1.8c0.1,0.6,0.4,0.8,1,0.8c0.2,0,0.4-0.1,0.7-0.3c0.3-0.2,0.4-0.4,0.4-0.6
		c0-0.2,0-1.5,0-3.8c0-0.2,0-0.3,0-0.3c0,0,0.1-0.1,0.3-0.1c0.2,0,0.6,0,1.1,0c0.5,0,0.8,0,1.1,0c0.1,0,0.2,0,0.3,0.1
		C184.6-81.6,184.6-81.5,184.6-81.5L184.6-81.5z"/>
	<path fill="#2BACE2" d="M193-74.8c0,0.1-0.1,0.2-0.2,0.2s-0.5,0-1,0c-0.6,0-0.9,0-1.1,0c-0.1,0-0.2-0.1-0.2-0.3c0-0.2,0-0.6,0-1
		c0-0.5,0-0.8,0-1c0-0.2,0-0.4,0-0.8c0-0.4,0-0.6,0-0.8c0-0.7-0.3-1-0.8-1c-0.2,0-0.4,0.1-0.6,0.2c-0.3,0.2-0.4,0.4-0.4,0.5v3.9
		c0,0.2-0.1,0.2-0.2,0.3c-0.2,0-0.5,0-1,0c-0.5,0-0.9,0-1.1,0c-0.1,0-0.2-0.1-0.2-0.2c0-0.4,0-0.9,0-1.7c0-0.8,0-1.3,0-1.7
		c0-1.2-0.1-2.1-0.3-2.8c0,0,0-0.1,0-0.1c0-0.1,0-0.1,0.1-0.2c0.3,0,0.7-0.1,1.2-0.2c0.7-0.1,1.2-0.2,1.2-0.2c0.1,0,0.1,0.2,0.1,0.5
		s0.1,0.5,0.1,0.5c0,0,0.2-0.2,0.7-0.5c0.5-0.3,1-0.5,1.4-0.5c0.6,0,1.1,0.1,1.5,0.4c0.4,0.3,0.7,0.8,0.7,1.4v2.3c0,0.3,0,0.8,0,1.4
		C193-75.6,193-75.1,193-74.8L193-74.8z"/>
	<path fill="#2BACE2" d="M198.7-79.2c0,0-0.1,0-0.4-0.1c-0.3-0.1-0.5-0.1-0.6-0.1c-0.4,0-0.7,0.1-0.9,0.4c-0.2,0.2-0.3,0.6-0.3,1
		c0,0.4,0.1,0.7,0.4,1c0.3,0.2,0.6,0.4,1,0.4c0.2,0,0.4-0.1,0.6-0.2c0.2-0.1,0.4-0.2,0.3-0.2c0.1,0,0.2,0.3,0.3,0.9
		c0.1,0.5,0.1,0.9,0.1,1s-0.3,0.3-0.8,0.4c-0.4,0.1-0.8,0.1-1,0.1c-1,0-1.8-0.3-2.4-1c-0.6-0.7-0.9-1.5-0.9-2.5c0-1,0.3-1.8,0.9-2.5
		c0.6-0.7,1.4-1,2.4-1c0.7,0,1.2,0.1,1.7,0.4c0.1,0.1,0.2,0.1,0.2,0.2c0,0.1-0.1,0.3-0.2,0.8c-0.1,0.5-0.2,0.7-0.2,0.8
		C198.8-79.3,198.7-79.2,198.7-79.2L198.7-79.2z"/>
	<path fill="#2BACE2" d="M206.5-78.1l0,3.5c0,0.1-0.1,0.2-0.2,0.2c-0.1,0-0.4,0-0.9,0c-0.4,0-0.7,0-0.9,0c-0.1,0-0.2-0.1-0.2-0.2
		c0-0.3,0-0.7,0-1.3c0-0.6,0-1,0-1.3c0-0.4-0.2-0.6-0.7-0.6c-0.2,0-0.3,0.1-0.6,0.2c-0.2,0.1-0.4,0.2-0.4,0.4v1.2c0,0.2,0,0.4,0,0.7
		c0,0.3,0,0.6,0,0.7c0,0.1-0.1,0.2-0.2,0.2c-0.1,0-0.5,0-1,0c-0.3,0-0.6,0-0.7,0c-0.1,0-0.2-0.1-0.2-0.2c0-0.3,0-0.7,0-1.2
		c0-0.5,0-0.9,0-1.2c0-1.1,0-2,0-2.7c0-0.3,0-0.5,0-0.8c0-0.3-0.1-0.5-0.1-0.7c0,0,0-0.1,0-0.1c0,0,0-0.1,0.1-0.1
		c0.1,0,0.3,0,0.5-0.1c0.3,0,0.5,0,0.6,0c0.7-0.1,1.1-0.1,1.1-0.1c0.1,0,0.1,0,0.1,0.1c0,0.1,0,0.3,0,0.4c0,0.2,0,0.4,0,0.4
		c0,0.8,0,1.4,0,1.8c0,0.1,0,0.1,0.1,0.1c0,0,0.1-0.1,0.3-0.2c0.2-0.1,0.4-0.2,0.7-0.3c0.3-0.1,0.6-0.2,0.9-0.2
		c0.5,0,0.9,0.1,1.3,0.3C206.4-78.9,206.5-78.6,206.5-78.1L206.5-78.1z"/>
	<path fill="#2BACE2" d="M210.3-80.9c0,0.6-0.5,0.9-1.5,0.9c-0.4,0-0.8-0.1-1.1-0.2c-0.3-0.2-0.5-0.4-0.5-0.7c0-0.3,0.2-0.5,0.5-0.7
		c0.3-0.2,0.7-0.2,1.1-0.2c0.4,0,0.8,0.1,1.1,0.2C210.2-81.4,210.3-81.2,210.3-80.9L210.3-80.9z M210.1-77c0,0.3,0,0.6,0,1.2
		c0,0.5,0,0.9,0,1.2c0,0.1-0.1,0.1-0.2,0.1c-0.2,0-0.6,0-1.2,0c-0.6,0-1,0-1.2,0c-0.1,0-0.2,0-0.2-0.1c0,0,0-0.1,0-0.2
		c0-0.2,0-0.6,0-1.1c0-0.5,0-0.9,0-1.1c0-1-0.1-1.8-0.2-2.4c0-0.1,0-0.1,0-0.1c0-0.1,0.1-0.1,0.2-0.1c0.1,0,0.4,0,0.7,0
		c0.3,0,0.5,0,0.7,0c0.2,0,0.4,0,0.7,0c0.3,0,0.5,0,0.7,0c0.1,0,0.2,0,0.2,0.1c0,0,0,0,0,0.1C210.2-78.7,210.1-77.9,210.1-77
		L210.1-77z"/>
	<path fill="#2BACE2" d="M225.1-76.6c0,1.2-0.3,2.1-0.8,2.7c-0.5,0.6-1.4,0.8-2.6,0.8c-0.4,0-0.8-0.1-1.4-0.2
		c-0.8-0.1-1.2-0.3-1.2-0.5c0-0.1,0.1-0.5,0.3-1.3c0-0.1,0.1-0.2,0.1-0.2c0,0,0,0,0.1,0c0.6,0.3,1.2,0.5,1.8,0.5
		c0.3,0,0.6-0.1,0.9-0.2c0.4-0.2,0.5-0.4,0.5-0.7v-0.4c-0.4,0.4-1,0.6-1.6,0.6c-0.8,0-1.4-0.3-1.9-0.9c-0.5-0.6-0.7-1.3-0.7-2.1
		c0-0.8,0.2-1.5,0.7-2.1c0.5-0.6,1.1-0.9,1.9-0.9c0.6,0,1.1,0.2,1.4,0.7c0.1,0.1,0.1,0.1,0.1,0.1c0,0,0.1-0.1,0.1-0.2
		c0-0.3,0-0.5,0.1-0.5c0.1,0,0.4,0,1.1,0.1c0.7,0.1,1,0.1,1,0.1c0.1,0,0.1,0.1,0.1,0.2c0,0.3,0,0.7,0,1.3c0,0.6,0,1,0,1.3
		c0,0.2,0,0.4,0,0.8C225.1-77.1,225.1-76.8,225.1-76.6L225.1-76.6z M223-78.4c0-0.3-0.1-0.6-0.3-0.8c-0.2-0.2-0.5-0.3-0.8-0.3
		c-0.3,0-0.6,0.1-0.8,0.4c-0.2,0.2-0.3,0.5-0.3,0.8c0,0.3,0.1,0.6,0.3,0.8c0.2,0.2,0.5,0.3,0.8,0.3c0.3,0,0.6-0.1,0.8-0.4
		C222.9-77.8,223-78.1,223-78.4L223-78.4z"/>
	<path fill="#2BACE2" d="M218.2-74.6c0,0.1-0.1,0.2-0.2,0.2c-0.1,0-0.5,0-1,0c-0.6,0-0.9,0-1.1,0c-0.1,0-0.2-0.1-0.2-0.3
		c0-0.2,0-0.6,0-1c0-0.5,0-0.8,0-1c0-0.2,0-0.4,0-0.8c0-0.4,0-0.6,0-0.8c0-0.7-0.3-1-0.8-1c-0.2,0-0.4,0.1-0.6,0.2
		c-0.3,0.2-0.4,0.4-0.4,0.5v3.9c0,0.2-0.1,0.2-0.2,0.3c-0.2,0-0.5,0-1,0c-0.5,0-0.9,0-1.1,0c-0.1,0-0.2-0.1-0.2-0.2
		c0-0.4,0-0.9,0-1.7c0-0.8,0-1.3,0-1.7c0-1.2-0.1-2.1-0.3-2.8c0,0,0-0.1,0-0.1c0-0.1,0-0.1,0.1-0.2c0.3,0,0.7-0.1,1.2-0.2
		c0.7-0.1,1.2-0.2,1.2-0.2c0.1,0,0.1,0.2,0.1,0.5c0,0.3,0.1,0.5,0.1,0.5c-0.1,0,0.2-0.2,0.7-0.5c0.5-0.3,1-0.5,1.4-0.5
		c0.6,0,1.1,0.1,1.5,0.4c0.4,0.3,0.7,0.8,0.7,1.4v2.3c0,0.3,0,0.8,0,1.4C218.2-75.4,218.2-75,218.2-74.6L218.2-74.6z"/>
	<g>
		<path fill="#F58220" d="M170.3-74c0-0.1,0-0.1-1.1-0.4c-0.9-0.2-3.1-0.5-3.2-0.6c-0.1,0-0.1,0-0.1,0.1c0,0,0,0.1,0,0.1
			c0,0.1,0.3,0.5,0.5,0.7c0,0,0,0,0,0c0.3,0.1,2.4,0.5,2.8,0.7c0.1,0.4-0.2,2.5-0.4,4.5c-0.1,0.1-0.1,0.2-0.1,0.3
			c0,0,0.1,0.1,0.1,0.1c0.1,0,0.1,0,0.4-0.4c0.5-0.5,0.8-3.3,1-5L170.3-74C170.3-73.9,170.3-74,170.3-74z"/>
		<path fill="#F58220" d="M169.1-72.8c-0.1-0.2-0.3-0.3-0.6-0.2c-9.7,3.7-17.1,5.6-28.8,4.5c-5-0.5-12.2-2.1-12.5-4.4
			c0-0.2-0.3-0.4-0.5-0.4c-0.2,0-0.4,0.3-0.4,0.5c0.6,4,12.8,5.1,13.3,5.2c2.2,0.2,4.3,0.3,6.2,0.3c8.5,0,14.9-1.8,22.9-4.9
			C169.1-72.4,169.2-72.6,169.1-72.8z"/>
	</g>
	<path fill="#2BACE2" d="M171.1-69.7C171.1-69.7,171.1-69.7,171.1-69.7c0.1,0,0.1,0,0.1,0c0,0,0.1,0,0.1,0c0,0,0,0,0.1,0
		c0.2,0,0.3,0,0.4,0c0.1,0,0.2-0.1,0.3-0.1c0,0,0.1-0.1,0.1-0.1c0-0.1,0.1-0.1,0.1-0.2c0-0.1,0-0.2,0.1-0.3c0-0.1,0-0.3,0-0.4
		c0-0.2,0-0.4-0.1-0.5c-0.1-0.1-0.1-0.3-0.2-0.3c-0.1-0.1-0.2-0.1-0.3-0.2c-0.1,0-0.2,0-0.4,0c0,0,0,0-0.1,0c0,0-0.1,0-0.1,0
		c0,0-0.1,0-0.1,0c0,0,0,0-0.1,0V-69.7L171.1-69.7z M170.6-72.2c0.1,0,0.1,0,0.2,0c0.1,0,0.2,0,0.2,0c0.1,0,0.2,0,0.3,0
		c0.1,0,0.2,0,0.2,0c0.2,0,0.4,0,0.6,0.1c0.2,0,0.3,0.1,0.5,0.2c0.1,0.1,0.2,0.2,0.3,0.4c0.1,0.2,0.1,0.4,0.1,0.6
		c0,0.2,0,0.4-0.1,0.6c-0.1,0.2-0.1,0.4-0.3,0.5c-0.1,0.1-0.3,0.2-0.5,0.3c-0.2,0.1-0.4,0.1-0.7,0.1c-0.1,0-0.2,0-0.2,0
		c-0.1,0-0.2,0-0.2,0c-0.1,0-0.2,0-0.2,0c-0.1,0-0.1,0-0.2,0L170.6-72.2L170.6-72.2z M174-69.4h-0.5v-1.9h0.5V-69.4L174-69.4z
		 M173.8-72.4l0.3,0.4l-0.3,0.4l-0.3-0.4L173.8-72.4L173.8-72.4z M175.3-70.1c0,0,0.1,0,0.1,0c0,0,0.1,0,0.1,0c0,0,0-0.1,0.1-0.1
		c0-0.1,0-0.2,0-0.3c0-0.1,0-0.1,0-0.2c0-0.1,0-0.1-0.1-0.2c0,0-0.1-0.1-0.1-0.1c0,0-0.1,0-0.1,0c0,0-0.1,0-0.1,0c0,0-0.1,0-0.1,0
		c0,0-0.1,0.1-0.1,0.1c0,0.1,0,0.2,0,0.3c0,0.1,0,0.1,0,0.2c0,0.1,0,0.1,0.1,0.2c0,0,0.1,0.1,0.1,0.1
		C175.3-70.1,175.3-70.1,175.3-70.1L175.3-70.1z M175.2-68.1c-0.1,0-0.2,0-0.3,0c-0.1,0-0.2-0.1-0.2-0.1c-0.1,0-0.1-0.1-0.1-0.1
		c0,0,0-0.1,0-0.2c0-0.1,0-0.2,0.1-0.2c0.1-0.1,0.2-0.1,0.3-0.2l0.1,0c0,0,0,0.1,0,0.1c0,0,0,0.1,0,0.1c0,0.1,0,0.2,0.1,0.2
		c0.1,0.1,0.1,0.1,0.3,0.1c0.1,0,0.1,0,0.2,0c0.1,0,0.1,0,0.2,0c0,0,0.1,0,0.1,0c0,0,0.1,0,0.1,0c0,0,0.1-0.1,0.1-0.1
		c0,0,0-0.1,0-0.2c0-0.1-0.1-0.2-0.4-0.2l-0.3,0c-0.2,0-0.4,0-0.5-0.1c-0.1-0.1-0.1-0.2-0.1-0.3c0,0,0-0.1,0-0.1c0,0,0-0.1,0.1-0.1
		c0,0,0.1-0.1,0.1-0.1c0,0,0.1-0.1,0.1-0.1c-0.1,0-0.1-0.1-0.2-0.1c0,0-0.1-0.1-0.1-0.1c0-0.1-0.1-0.1-0.1-0.2c0-0.1,0-0.1,0-0.2
		c0-0.1,0-0.2,0.1-0.3c0-0.1,0.1-0.2,0.2-0.2c0.1-0.1,0.2-0.1,0.3-0.1c0.1,0,0.2-0.1,0.3-0.1c0.1,0,0.2,0,0.3,0c0.1,0,0.1,0,0.2,0
		c0.1,0,0.2,0,0.3,0c0.1,0,0.2,0,0.3,0l0,0.2c0,0-0.1,0-0.2,0c-0.1,0-0.1,0-0.2,0c0,0,0,0.1,0.1,0.2s0,0.2,0,0.3
		c0,0.1,0,0.2-0.1,0.3c0,0.1-0.1,0.2-0.2,0.2c-0.1,0.1-0.2,0.1-0.3,0.1c-0.1,0-0.2,0-0.3,0c0,0,0,0-0.1,0c0,0,0,0-0.1,0
		c0,0,0,0-0.1,0c0,0,0,0-0.1,0c0,0,0,0.1,0,0.1c0,0,0,0.1,0,0.1c0,0,0,0.1,0.1,0.1c0,0,0.1,0,0.2,0h0.4c0.1,0,0.2,0,0.3,0
		c0.1,0,0.2,0.1,0.2,0.1c0.1,0,0.1,0.1,0.1,0.2c0,0.1,0,0.1,0,0.2c0,0.1,0,0.2-0.1,0.3s-0.1,0.2-0.3,0.3c-0.1,0.1-0.2,0.2-0.4,0.2
		C175.5-68.1,175.3-68.1,175.2-68.1L175.2-68.1z M177.3-69.4h-0.5v-1.9h0.5V-69.4L177.3-69.4z M177.1-72.4l0.3,0.4l-0.3,0.4
		l-0.3-0.4L177.1-72.4L177.1-72.4z M178-71.1l-0.2-0.1v-0.1l0.6-0.4h0.1l0,0.3h0.6l0,0.2c0,0-0.1,0-0.2,0c-0.1,0-0.1,0-0.2,0
		c-0.1,0-0.1,0-0.2,0v1.1c0,0.1,0,0.1,0,0.2c0,0,0.1,0.1,0.2,0.1c0,0,0,0,0.1,0c0,0,0.1,0,0.1,0c0,0,0.1,0,0.1,0s0.1,0,0.1,0v0.2
		c0,0-0.1,0.1-0.2,0.1c-0.1,0-0.1,0.1-0.2,0.1c-0.1,0-0.1,0-0.2,0.1c-0.1,0-0.1,0-0.2,0c0,0-0.1,0-0.1,0c0,0-0.1,0-0.1-0.1
		c0,0-0.1-0.1-0.1-0.1c0,0,0-0.1,0-0.2V-71.1L178-71.1L178-71.1z M180-69.4h-0.5v-1.9h0.5V-69.4L180-69.4z M179.7-72.4l0.3,0.4
		l-0.3,0.4l-0.3-0.4L179.7-72.4L179.7-72.4z M180.5-71.3c0.1,0,0.1,0,0.3,0c0.1,0,0.2,0,0.3,0c0.1,0,0.3,0,0.4,0c0.1,0,0.2,0,0.4,0
		v0.1l-0.9,1.5c0,0,0,0,0.1,0c0,0,0.1,0,0.1,0c0,0,0.1,0,0.1,0c0,0,0.1,0,0.1,0c0.1,0,0.2,0,0.3,0c0.1,0,0.1,0,0.2-0.1
		c0,0,0.1,0,0.1-0.1c0,0,0.1-0.1,0.1-0.1l0.1,0.1c0,0,0,0.1-0.1,0.1c0,0.1-0.1,0.1-0.1,0.2c0,0-0.1,0.1-0.2,0.1c-0.1,0-0.2,0-0.3,0
		c-0.1,0-0.2,0-0.3,0c-0.1,0-0.2,0-0.3,0c-0.1,0-0.2,0-0.3,0c-0.1,0-0.1,0-0.2,0v-0.1l0.9-1.5h0c-0.1,0-0.3,0-0.4,0
		c-0.1,0-0.2,0-0.3,0L180.5-71.3L180.5-71.3z M183-69.4h-0.5v-1.9h0.5V-69.4L183-69.4z M182.7-72.4L183-72l-0.3,0.4l-0.3-0.4
		L182.7-72.4L182.7-72.4z M184.8-69.4v-1.3c0-0.1,0-0.2-0.1-0.2c0-0.1-0.1-0.1-0.2-0.1c0,0-0.1,0-0.1,0c0,0-0.1,0-0.1,0
		c0,0-0.1,0-0.1,0.1c0,0-0.1,0-0.1,0.1v1.4h-0.5v-1.9h0.5l0,0.2h0c0,0,0.1-0.1,0.1-0.1c0.1,0,0.1-0.1,0.2-0.1c0.1,0,0.1,0,0.2-0.1
		c0.1,0,0.1,0,0.2,0c0.1,0,0.1,0,0.2,0c0.1,0,0.1,0.1,0.2,0.1c0,0,0.1,0.1,0.1,0.2c0,0.1,0,0.2,0,0.2v1.4H184.8L184.8-69.4z
		 M186.6-70.1c0,0,0.1,0,0.1,0c0,0,0.1,0,0.1,0c0,0,0-0.1,0.1-0.1s0-0.2,0-0.3c0-0.1,0-0.1,0-0.2c0-0.1,0-0.1-0.1-0.2
		c0,0-0.1-0.1-0.1-0.1c0,0-0.1,0-0.1,0c0,0-0.1,0-0.1,0c0,0-0.1,0-0.1,0c0,0,0,0.1-0.1,0.1c0,0.1,0,0.2,0,0.3c0,0.1,0,0.1,0,0.2
		c0,0.1,0,0.1,0.1,0.2c0,0,0.1,0.1,0.1,0.1C186.5-70.1,186.5-70.1,186.6-70.1L186.6-70.1z M186.4-68.1c-0.1,0-0.2,0-0.3,0
		c-0.1,0-0.2-0.1-0.2-0.1c-0.1,0-0.1-0.1-0.1-0.1c0,0,0-0.1,0-0.2c0-0.1,0-0.2,0.1-0.2c0.1-0.1,0.2-0.1,0.3-0.2l0.1,0
		c0,0,0,0.1,0,0.1c0,0,0,0.1,0,0.1c0,0.1,0,0.2,0.1,0.2c0.1,0.1,0.1,0.1,0.3,0.1c0.1,0,0.1,0,0.2,0c0.1,0,0.1,0,0.2,0
		c0.1,0,0.1,0,0.1,0c0,0,0.1,0,0.1,0c0,0,0.1-0.1,0.1-0.1c0,0,0-0.1,0-0.2c0-0.1-0.1-0.2-0.4-0.2l-0.3,0c-0.2,0-0.4,0-0.5-0.1
		c-0.1-0.1-0.1-0.2-0.1-0.3c0,0,0-0.1,0-0.1c0,0,0-0.1,0.1-0.1c0,0,0.1-0.1,0.1-0.1s0.1-0.1,0.1-0.1c-0.1,0-0.1-0.1-0.2-0.1
		s-0.1-0.1-0.1-0.1s-0.1-0.1-0.1-0.2c0-0.1,0-0.1,0-0.2c0-0.1,0-0.2,0.1-0.3c0-0.1,0.1-0.2,0.2-0.2c0.1-0.1,0.2-0.1,0.3-0.1
		c0.1,0,0.2-0.1,0.3-0.1c0.1,0,0.2,0,0.3,0c0.1,0,0.1,0,0.2,0c0.1,0,0.2,0,0.3,0c0.1,0,0.2,0,0.3,0l0,0.2c0,0-0.1,0-0.2,0
		c-0.1,0-0.1,0-0.2,0c0,0,0,0.1,0.1,0.2s0,0.2,0,0.3c0,0.1,0,0.2-0.1,0.3c0,0.1-0.1,0.2-0.2,0.2c-0.1,0.1-0.2,0.1-0.3,0.1
		c-0.1,0-0.2,0-0.3,0c0,0,0,0-0.1,0c0,0,0,0-0.1,0s0,0-0.1,0c0,0,0,0-0.1,0c0,0,0,0.1,0,0.1c0,0,0,0.1,0,0.1c0,0,0,0.1,0.1,0.1
		c0,0,0.1,0,0.2,0h0.4c0.1,0,0.2,0,0.3,0c0.1,0,0.2,0.1,0.2,0.1c0.1,0,0.1,0.1,0.1,0.2c0,0.1,0,0.1,0,0.2c0,0.1,0,0.2-0.1,0.3
		c-0.1,0.1-0.1,0.2-0.3,0.3c-0.1,0.1-0.2,0.2-0.4,0.2C186.8-68.1,186.6-68.1,186.4-68.1L186.4-68.1z M191.5-70.8
		c0,0.2,0,0.4-0.1,0.6c-0.1,0.2-0.1,0.3-0.3,0.5c-0.1,0.1-0.3,0.2-0.4,0.3c-0.2,0.1-0.4,0.1-0.6,0.1c-0.2,0-0.4,0-0.6-0.1
		c-0.2-0.1-0.3-0.2-0.4-0.3c-0.1-0.1-0.2-0.3-0.2-0.5c-0.1-0.2-0.1-0.4-0.1-0.6c0-0.2,0-0.4,0.1-0.6c0.1-0.2,0.1-0.3,0.2-0.5
		c0.1-0.1,0.2-0.2,0.4-0.3c0.2-0.1,0.4-0.1,0.6-0.1c0.2,0,0.4,0,0.6,0.1c0.2,0.1,0.3,0.2,0.4,0.3s0.2,0.3,0.3,0.5
		C191.4-71.3,191.5-71.1,191.5-70.8L191.5-70.8z M190.9-70.8c0-0.2,0-0.3,0-0.5c0-0.1-0.1-0.3-0.1-0.3c-0.1-0.1-0.1-0.2-0.2-0.2
		c-0.1,0-0.2-0.1-0.4-0.1c-0.1,0-0.2,0-0.3,0c-0.1,0-0.2,0.1-0.2,0.1c-0.1,0-0.1,0.1-0.1,0.3c0,0.2,0,0.4,0,0.6c0,0.2,0,0.3,0,0.5
		c0,0.1,0.1,0.3,0.1,0.4c0.1,0.1,0.1,0.2,0.2,0.2c0.1,0.1,0.2,0.1,0.4,0.1c0.1,0,0.3,0,0.4,0c0.1,0,0.2-0.1,0.2-0.1
		c0,0,0.1-0.1,0.1-0.1c0-0.1,0-0.1,0.1-0.2c0-0.1,0-0.2,0-0.3S190.9-70.7,190.9-70.8L190.9-70.8z M193.1-70.9c0,0-0.1,0-0.1,0
		c0,0-0.1,0-0.1,0c0,0-0.1,0-0.1,0s0,0-0.1,0c0,0,0,0-0.1,0.1c0,0,0,0-0.1,0.1v1.4H192v-1.9h0.5l0,0.3h0c0,0,0,0,0.1-0.1
		c0,0,0-0.1,0.1-0.1c0,0,0-0.1,0.1-0.1s0.1,0,0.1-0.1c0,0,0.1,0,0.2,0c0.1,0,0.1,0,0.2,0L193.1-70.9L193.1-70.9z M196.2-72.3h0.3
		l-1,2.8H195l-1-2.8h0.6l0.5,1.5c0,0.1,0.1,0.2,0.1,0.3c0,0.1,0.1,0.2,0.1,0.3c0,0.1,0.1,0.2,0.1,0.3c0-0.1,0.1-0.2,0.1-0.3
		c0-0.1,0.1-0.2,0.1-0.3c0-0.1,0.1-0.2,0.1-0.3L196.2-72.3L196.2-72.3z M197.7-71.4c0.1,0,0.2,0,0.3,0c0.1,0,0.2,0.1,0.2,0.1
		c0.1,0.1,0.1,0.1,0.2,0.2c0.1,0.1,0.1,0.2,0.1,0.4v0c0,0,0,0-0.1,0.1c0,0-0.1,0-0.1,0c0,0-0.1,0-0.2,0c-0.1,0-0.1,0-0.2,0l-0.6,0
		v0.1c0,0.1,0,0.3,0.1,0.4c0.1,0.1,0.2,0.1,0.3,0.1c0.1,0,0.1,0,0.2,0c0.1,0,0.1,0,0.2,0c0.1,0,0.1,0,0.2-0.1c0.1,0,0.1,0,0.1-0.1
		l0,0.1c-0.1,0-0.1,0.1-0.2,0.1c-0.1,0-0.1,0.1-0.2,0.1c-0.1,0-0.2,0.1-0.3,0.1c-0.1,0-0.2,0-0.3,0c-0.1,0-0.2,0-0.3-0.1
		c-0.1,0-0.2-0.1-0.3-0.2c-0.1-0.1-0.1-0.2-0.2-0.3c0-0.1-0.1-0.3-0.1-0.4c0-0.2,0-0.4,0.1-0.5s0.1-0.2,0.2-0.3
		c0.1-0.1,0.2-0.1,0.3-0.2C197.4-71.3,197.5-71.4,197.7-71.4L197.7-71.4z M197.4-71C197.4-71,197.4-71,197.4-71
		c-0.1,0.1-0.1,0.1-0.1,0.2c0,0,0,0.1,0,0.1c0,0,0,0.1,0,0.1l0.6,0c0-0.1,0-0.1,0-0.2c0-0.1,0-0.1-0.1-0.2c0,0-0.1-0.1-0.1-0.1
		c0,0-0.1,0-0.1,0C197.6-71.1,197.5-71.1,197.4-71C197.5-71.1,197.4-71.1,197.4-71L197.4-71z M200.3-70.9c-0.1,0-0.1-0.1-0.2-0.1
		c-0.1,0-0.2,0-0.3,0c0,0-0.1,0-0.1,0c0,0-0.1,0-0.1,0.1c0,0-0.1,0.1-0.1,0.2c0,0.1,0,0.3,0,0.5c0,0.1,0,0.2,0,0.3
		c0,0.1,0,0.1,0.1,0.2c0,0.1,0.1,0.1,0.1,0.1c0,0,0.1,0,0.2,0c0.1,0,0.2,0,0.3,0c0.1,0,0.2-0.1,0.3-0.1l0,0.1
		c-0.1,0.1-0.2,0.2-0.4,0.2c-0.1,0.1-0.3,0.1-0.4,0.1c-0.1,0-0.2,0-0.3-0.1c-0.1,0-0.2-0.1-0.3-0.2s-0.1-0.2-0.2-0.3
		c0-0.1-0.1-0.3-0.1-0.4c0-0.2,0-0.3,0.1-0.4c0-0.1,0.1-0.2,0.2-0.3c0.1-0.1,0.2-0.2,0.3-0.2c0.1,0,0.3-0.1,0.4-0.1
		c0.1,0,0.2,0,0.3,0c0.1,0,0.2,0,0.3,0L200.3-70.9L200.3-70.9z M200.8-71.1l-0.2-0.1v-0.1l0.6-0.4h0.1l0,0.3h0.6l0,0.2
		c0,0-0.1,0-0.2,0c-0.1,0-0.1,0-0.2,0c-0.1,0-0.1,0-0.2,0v1.1c0,0.1,0,0.1,0,0.2c0,0,0.1,0.1,0.2,0.1c0,0,0,0,0.1,0c0,0,0.1,0,0.1,0
		c0,0,0.1,0,0.1,0c0,0,0.1,0,0.1,0v0.2c0,0-0.1,0.1-0.2,0.1c-0.1,0-0.1,0.1-0.2,0.1c-0.1,0-0.1,0-0.2,0.1c-0.1,0-0.1,0-0.2,0
		c0,0-0.1,0-0.1,0c0,0-0.1,0-0.1-0.1c0,0-0.1-0.1-0.1-0.1c0,0,0-0.1,0-0.2L200.8-71.1L200.8-71.1z M203.1-69.4
		c-0.3,0-0.5-0.1-0.7-0.3c-0.2-0.2-0.2-0.4-0.2-0.7c0-0.2,0-0.3,0.1-0.4c0-0.1,0.1-0.2,0.2-0.3c0.1-0.1,0.2-0.1,0.3-0.2
		s0.3-0.1,0.4-0.1c0.3,0,0.5,0.1,0.7,0.3c0.2,0.2,0.2,0.4,0.2,0.7c0,0.2,0,0.3-0.1,0.4c0,0.1-0.1,0.2-0.2,0.3
		c-0.1,0.1-0.2,0.2-0.3,0.2C203.4-69.4,203.3-69.4,203.1-69.4L203.1-69.4z M202.7-70.4c0,0.2,0,0.4,0.1,0.5s0.2,0.2,0.3,0.2
		c0.1,0,0.1,0,0.1,0c0,0,0.1,0,0.1,0c0,0,0,0,0.1-0.1c0,0,0-0.1,0-0.1c0-0.1,0-0.1,0-0.2c0-0.1,0-0.2,0-0.2c0-0.2,0-0.4-0.1-0.5
		c-0.1-0.1-0.2-0.2-0.3-0.2c-0.1,0-0.1,0-0.1,0c0,0-0.1,0-0.1,0c0,0,0,0-0.1,0.1s0,0.1,0,0.1c0,0.1,0,0.1,0,0.2
		C202.7-70.5,202.7-70.5,202.7-70.4L202.7-70.4z M205.6-70.9c0,0-0.1,0-0.1,0c0,0-0.1,0-0.1,0c0,0-0.1,0-0.1,0c0,0,0,0-0.1,0
		c0,0,0,0-0.1,0.1c0,0,0,0-0.1,0.1v1.4h-0.5v-1.9h0.5l0,0.3h0c0,0,0,0,0.1-0.1c0,0,0-0.1,0.1-0.1s0-0.1,0.1-0.1s0.1,0,0.1-0.1
		c0,0,0.1,0,0.2,0s0.1,0,0.2,0L205.6-70.9L205.6-70.9z M208.5-69.4l-0.3-1l-1,0l-0.3,0.9h-0.3l1.1-2.8l0.5-0.1l1,2.9L208.5-69.4
		L208.5-69.4z M208.1-70.6l-0.4-1.2l-0.4,1.2H208.1L208.1-70.6z M210.5-70.9c0,0-0.1,0-0.1,0c0,0-0.1,0-0.1,0c0,0-0.1,0-0.1,0
		c0,0,0,0-0.1,0c0,0,0,0-0.1,0.1c0,0,0,0-0.1,0.1v1.4h-0.5v-1.9h0.5l0,0.3h0c0,0,0,0,0.1-0.1c0,0,0-0.1,0.1-0.1c0,0,0-0.1,0.1-0.1
		c0,0,0.1,0,0.1-0.1c0,0,0.1,0,0.2,0c0.1,0,0.1,0,0.2,0L210.5-70.9L210.5-70.9z M211-71.1l-0.2-0.1v-0.1l0.6-0.4h0.1l0,0.3h0.6
		l0,0.2c0,0-0.1,0-0.2,0c-0.1,0-0.1,0-0.2,0c-0.1,0-0.1,0-0.2,0v1.1c0,0.1,0,0.1,0,0.2s0.1,0.1,0.2,0.1c0,0,0,0,0.1,0
		c0,0,0.1,0,0.1,0c0,0,0.1,0,0.1,0s0.1,0,0.1,0v0.2c0,0-0.1,0.1-0.2,0.1c-0.1,0-0.1,0.1-0.2,0.1c-0.1,0-0.1,0-0.2,0.1
		c-0.1,0-0.1,0-0.2,0c0,0-0.1,0-0.1,0c0,0-0.1,0-0.1-0.1c0,0-0.1-0.1-0.1-0.1c0,0,0-0.1,0-0.2V-71.1L211-71.1z"/>
	<g>
		<path fill="#F58220" d="M213.8-71.5c-0.2,0.2-0.3,0.4-0.3,0.6c-0.1,0.2-0.1,0.5-0.1,0.7c0,0.3,0,0.5,0.1,0.8s0.2,0.4,0.3,0.6
			l-0.1,0.1c-0.2-0.2-0.4-0.4-0.5-0.6s-0.2-0.5-0.2-0.7c0-0.3,0.1-0.5,0.2-0.8C213.3-71.1,213.5-71.4,213.8-71.5L213.8-71.5z"/>
		<path fill="#F58220" d="M213.9-69.5v-0.1c0.1,0,0.2,0,0.2-0.1s0.1-0.1,0.1-0.2v-1.3c0-0.1,0-0.2,0-0.2c0,0-0.1,0-0.1,0
			c0,0,0,0,0,0c0,0,0,0,0,0v-0.1c0.1,0,0.2,0,0.4,0c0.1,0,0.2,0,0.4,0c0.3,0,0.5,0.1,0.6,0.2c0.2,0.1,0.2,0.3,0.2,0.5
			c0,0.2-0.1,0.3-0.2,0.4c-0.1,0.1-0.3,0.2-0.5,0.2c0,0,0,0-0.1,0s-0.1,0-0.1,0v-0.1h0c0.1,0,0.2,0,0.3-0.1s0.1-0.2,0.1-0.3
			c0-0.2,0-0.3-0.1-0.4c-0.1-0.1-0.2-0.1-0.3-0.1c-0.1,0-0.1,0-0.1,0.1c0,0,0,0.1,0,0.2v1.3c0,0.1,0,0.2,0,0.2s0.1,0,0.2,0v0.1
			c0,0,0,0-0.1,0c0,0,0,0-0.1,0c0,0-0.1,0-0.2,0c-0.1,0-0.1,0-0.1,0c0,0-0.1,0-0.1,0c-0.1,0-0.1,0-0.2,0
			C214-69.5,214-69.5,213.9-69.5C214-69.5,214-69.5,213.9-69.5z"/>
		<path fill="#F58220" d="M216.3-69.5c-0.1-0.3-0.2-0.5-0.3-0.7c-0.1-0.2-0.1-0.3-0.2-0.4c0,0,0-0.1,0-0.1s0,0-0.1,0l-0.1,0v-0.1
			c0,0,0,0,0,0c0,0,0,0,0,0c0,0,0.1,0,0.1,0s0.1,0,0.1,0c0,0,0.1,0,0.1,0s0.1,0,0.2,0h0.1v0.1l-0.1,0c0,0,0,0-0.1,0c0,0,0,0,0,0
			c0,0,0,0,0,0c0,0,0,0,0,0.1l0.3,0.7l0.3-0.6c0,0,0,0,0-0.1c0,0,0,0,0,0c0,0,0,0,0,0c0,0,0,0-0.1,0l-0.1,0v-0.1c0,0,0,0,0,0
			c0,0,0,0,0,0c0,0,0.1,0,0.1,0c0.1,0,0.1,0,0.1,0c0,0,0,0,0.1,0c0,0,0,0,0.1,0l0,0.1c-0.1,0-0.2,0.1-0.2,0.3c0,0,0,0.1,0,0.1
			c0,0.1-0.1,0.1-0.1,0.3c-0.1,0.3-0.2,0.5-0.3,0.6L216.3-69.5z"/>
		<path fill="#F58220" d="M218.1-69.7c0,0.1-0.1,0.2-0.2,0.2s-0.2,0.1-0.3,0.1c-0.1,0-0.2,0-0.3-0.1c-0.1-0.1-0.1-0.2-0.1-0.3
			c0,0,0-0.1,0-0.2c0-0.1,0-0.2,0-0.3v-0.1c0-0.1,0-0.1,0-0.1c0,0-0.1,0-0.1,0c0,0,0,0,0,0c0,0,0,0,0,0v-0.1
			c0.1-0.1,0.2-0.1,0.2-0.2c0.1-0.1,0.1-0.2,0.2-0.3h0.1v0.4h0.4v0.1h-0.4v0.7c0,0.1,0,0.2,0,0.2c0,0,0.1,0.1,0.2,0.1
			c0,0,0.1,0,0.1,0C218-69.7,218-69.7,218.1-69.7L218.1-69.7z"/>
		<path fill="#F58220" d="M218.2-69.7c0-0.1,0-0.1,0.1-0.2c0,0,0.1-0.1,0.2-0.1c0.1,0,0.1,0,0.2,0.1c0,0,0.1,0.1,0.1,0.2
			c0,0.1,0,0.1-0.1,0.2c0,0-0.1,0.1-0.2,0.1c-0.1,0-0.1,0-0.2-0.1C218.3-69.6,218.2-69.6,218.2-69.7z"/>
		<path fill="#F58220" d="M218.9-68.8c0.2-0.2,0.3-0.4,0.3-0.6c0.1-0.2,0.1-0.5,0.1-0.7c0-0.3,0-0.5-0.1-0.8s-0.2-0.4-0.3-0.6
			l0.1-0.1c0.2,0.2,0.4,0.4,0.5,0.6c0.1,0.2,0.2,0.5,0.2,0.7c0,0.3-0.1,0.5-0.2,0.8C219.4-69.2,219.2-69,218.9-68.8L218.9-68.8z"/>
		<path fill="#F58220" d="M220.8-69.5v-0.1l0.1,0c0.1,0,0.1,0,0.1-0.1c0,0,0-0.1,0-0.2v-1.3c0-0.1,0-0.2,0-0.2s-0.1,0-0.2,0v-0.1
			h0.1c0.1,0,0.1,0,0.2,0s0.1,0,0.2,0c0,0,0.1,0,0.2,0s0.1,0,0.2,0c0,0,0.1,0,0.1,0c0,0,0,0,0,0v0.1c-0.1,0-0.2,0-0.2,0
			c0,0-0.1,0.1-0.1,0.2v1.2c0,0.1,0,0.2,0.1,0.2c0,0,0.1,0.1,0.3,0.1c0.2,0,0.3,0,0.3,0s0.1-0.1,0.1-0.1l0.1-0.2l0.1,0
			c0,0.1,0,0.1-0.1,0.2c0,0.1,0,0.1-0.1,0.2c-0.1,0-0.1,0-0.2,0c-0.3,0-0.4,0-0.4,0c-0.1,0-0.3,0-0.4,0
			C221.1-69.5,220.9-69.5,220.8-69.5z"/>
		<path fill="#F58220" d="M223.4-69.7c0,0.1-0.1,0.2-0.2,0.2s-0.2,0.1-0.3,0.1c-0.1,0-0.2,0-0.3-0.1c-0.1-0.1-0.1-0.2-0.1-0.3
			c0,0,0-0.1,0-0.2c0-0.1,0-0.2,0-0.3v-0.1c0-0.1,0-0.1,0-0.1s-0.1,0-0.1,0c0,0,0,0,0,0s0,0,0,0v-0.1c0.1-0.1,0.2-0.1,0.2-0.2
			c0.1-0.1,0.1-0.2,0.2-0.3h0.1v0.4h0.4v0.1H223v0.7c0,0.1,0,0.2,0.1,0.2c0,0,0.1,0.1,0.2,0.1c0,0,0.1,0,0.1,0
			S223.3-69.7,223.4-69.7L223.4-69.7z"/>
		<path fill="#F58220" d="M224.8-71.7c0,0.1,0,0.2,0,0.3c0,0.1,0,0.2,0,0.3v1.3c0,0,0,0.1,0,0.1c0,0,0,0,0.1,0c0,0,0,0,0,0
			c0,0,0,0,0,0v0.1c-0.1,0-0.2,0.1-0.3,0.1s-0.1,0-0.2,0.1l0,0c0,0,0-0.1,0-0.1c0,0,0-0.1,0-0.1c-0.1,0.1-0.1,0.1-0.2,0.1
			c-0.1,0-0.1,0-0.2,0c-0.2,0-0.3-0.1-0.4-0.2c-0.1-0.1-0.1-0.3-0.1-0.4c0-0.1,0-0.2,0.1-0.3c0-0.1,0.1-0.2,0.2-0.3
			c0.1-0.1,0.1-0.1,0.2-0.1c0.1,0,0.2-0.1,0.2-0.1c0,0,0.1,0,0.1,0c0,0,0.1,0,0.1,0v-0.5c0,0,0-0.1,0-0.1c0,0,0,0,0,0l-0.1-0.1v-0.1
			c0.1,0,0.2-0.1,0.3-0.1L224.8-71.7z M224.5-70.4c0-0.1,0-0.2-0.1-0.2c-0.1-0.1-0.1-0.1-0.2-0.1c-0.1,0-0.2,0-0.2,0.1
			c-0.1,0.1-0.1,0.2-0.1,0.4c0,0.2,0,0.3,0.1,0.4c0.1,0.1,0.2,0.2,0.3,0.2c0,0,0.1,0,0.1,0s0.1,0,0.1-0.1V-70.4z"/>
		<path fill="#F58220" d="M225.2-69.7c0-0.1,0-0.1,0.1-0.2c0,0,0.1-0.1,0.2-0.1c0.1,0,0.1,0,0.2,0.1c0,0,0.1,0.1,0.1,0.2
			c0,0.1,0,0.1-0.1,0.2c0,0-0.1,0.1-0.2,0.1c-0.1,0-0.1,0-0.2-0.1C225.2-69.6,225.2-69.6,225.2-69.7z"/>
	</g>
</g>
</svg>
